<svg width="24" height="24" viewBox="0 0 24 24" fill="none" xmlns="http://www.w3.org/2000/svg">
<g clip-path="url(#clip0)">
<path d="M1 1.02783H23.0001V22.9721H1V1.02783Z" fill="url(#paint0_radial)"/>
<path d="M0.999988 1.02908H23.0001V22.9734H0.999988V1.02908ZM0 23.9988H24V0.00366211H0V23.9988ZM16.98 11.5706C17.49 11.5706 17.67 11.5706 17.72 11.5501C17.72 11.4783 17.74 11.427 17.74 11.3757C17.74 10.822 17.48 9.79656 16.44 9.79656C15.48 9.79656 15.07 10.6579 14.97 11.5706H16.98V11.5706ZM14.95 12.9754C14.97 14.3597 15.61 15.2929 17.13 15.2929C17.72 15.2929 18.23 15.2109 18.7601 14.975C18.83 14.9443 18.8801 14.9545 18.8801 15.0468V16.3286C18.8801 16.4311 18.8501 16.4824 18.7801 16.5337C18.2501 16.8003 17.59 16.9234 16.7701 16.9234C14.1301 16.9234 13.1401 14.9238 13.1401 12.6986C13.1401 10.2786 14.3601 8.2995 16.5101 8.2995C18.6901 8.2995 19.4501 10.176 19.4501 11.7039C19.4501 12.1962 19.4201 12.5961 19.3701 12.7909C19.3501 12.8729 19.3201 12.9037 19.2401 12.9242C19.0401 12.955 18.4501 12.996 17.5701 12.996H14.95V12.9754ZM9.59006 11.9295C9.31005 10.7912 8.63002 8.30967 8.38002 7.10991H8.36002C8.15005 8.30967 7.6 10.34 7.19001 11.9295H9.59006V11.9295ZM6.77999 13.5907L5.99001 16.6567C5.97001 16.7387 5.94002 16.7695 5.83999 16.7695H4.36998C4.27 16.7695 4.24996 16.7388 4.27 16.6157L7.10998 6.43313C7.15998 6.24858 7.18997 6.105 7.20997 5.59231C7.20997 5.52054 7.23997 5.48978 7.28996 5.48978H9.38996C9.45995 5.48978 9.48995 5.51028 9.50999 5.59231L12.69 16.6362C12.71 16.7182 12.69 16.7695 12.61 16.7695H10.96C10.88 16.7695 10.83 16.7388 10.81 16.667L9.98996 13.5907H6.77999V13.5907Z" fill="#D8A1FF"/>
</g>
<defs>
<radialGradient id="paint0_radial" cx="0" cy="0" r="1" gradientUnits="userSpaceOnUse" gradientTransform="translate(8.24575 5.94556) scale(16.72 16.5997)">
<stop stop-color="#442F55" stop-opacity="0.98"/>
<stop offset="1" stop-color="#12002C"/>
</radialGradient>
<clipPath id="clip0">
<rect width="24" height="24" fill="white"/>
</clipPath>
</defs>
</svg>
