<svg width="27" height="27" viewBox="0 0 27 27" fill="none" xmlns="http://www.w3.org/2000/svg">
<path d="M14.565 1.32849H4.60772C3.78816 1.32849 3.12378 1.99288 3.12378 2.81244V23.0477C3.12378 23.8672 3.78816 24.5316 4.60772 24.5316H14.565C15.3846 24.5316 16.049 23.8672 16.049 23.0477V2.81244C16.049 1.99288 15.3846 1.32849 14.565 1.32849Z" fill="#7CC8E1"/>
<path d="M3.12378 3.52856H16.049V21.3859H3.12378V3.52856Z" fill="#CFEFF8"/>
<path d="M3.12378 3.52856H16.049V4.16138H3.12378V3.52856Z" fill="white"/>
<path d="M11.3872 2.21143H7.78527C7.66574 2.21143 7.56885 2.30832 7.56885 2.42785V2.47362C7.56885 2.59315 7.66574 2.69004 7.78527 2.69004H11.3872C11.5068 2.69004 11.6037 2.59315 11.6037 2.47362V2.42785C11.6037 2.30832 11.5068 2.21143 11.3872 2.21143Z" fill="#56578A"/>
<path d="M12.5611 2.18823C12.5091 2.18823 12.4584 2.20363 12.4152 2.23249C12.372 2.26135 12.3383 2.30236 12.3185 2.35035C12.2986 2.39834 12.2934 2.45114 12.3035 2.50208C12.3136 2.55303 12.3387 2.59982 12.3754 2.63655C12.4121 2.67328 12.4589 2.69829 12.5098 2.70842C12.5608 2.71855 12.6136 2.71335 12.6616 2.69348C12.7096 2.6736 12.7506 2.63994 12.7794 2.59675C12.8083 2.55357 12.8237 2.50279 12.8237 2.45085C12.8237 2.41635 12.8169 2.38219 12.8038 2.35032C12.7906 2.31844 12.7712 2.28948 12.7468 2.26509C12.7224 2.2407 12.6935 2.22135 12.6616 2.20817C12.6297 2.19498 12.5956 2.1882 12.5611 2.18823Z" fill="#56578A"/>
<path d="M10.8044 22.2435H8.36806C8.07775 22.2435 7.84241 22.4789 7.84241 22.7692V22.8806C7.84241 23.1709 8.07775 23.4062 8.36806 23.4062H10.8044C11.0947 23.4062 11.33 23.1709 11.33 22.8806V22.7692C11.33 22.4789 11.0947 22.2435 10.8044 22.2435Z" fill="#56578A"/>
<path d="M22.5191 22.2064L17.3482 17.7101L15.9153 19.1432L20.4114 24.3141C20.5459 24.469 20.7107 24.5945 20.8958 24.6829C21.0808 24.7713 21.2821 24.8206 21.487 24.8278C21.692 24.835 21.8962 24.8 22.087 24.7249C22.2778 24.6497 22.4511 24.5361 22.5961 24.3911C22.7411 24.2461 22.8547 24.0728 22.9299 23.882C23.005 23.6912 23.04 23.487 23.0328 23.282C23.0256 23.0771 22.9762 22.8758 22.8879 22.6908C22.7995 22.5057 22.674 22.3409 22.5191 22.2064V22.2064Z" fill="#FF5454"/>
<path d="M17.512 16.362L17.2983 16.1483C17.1818 16.0317 17.0333 15.9523 16.8716 15.92C16.2416 17.0824 15.2874 18.0367 14.125 18.6667C14.1573 18.8283 14.2367 18.9768 14.3532 19.0934L14.5669 19.3071C14.724 19.4641 14.937 19.5523 15.1591 19.5523C15.3812 19.5523 15.5942 19.4641 15.7513 19.3071L17.512 17.5464C17.6691 17.3893 17.7573 17.1763 17.7573 16.9542C17.7573 16.7321 17.6691 16.519 17.512 16.362Z" fill="#FFD7BB"/>
<path d="M10.8778 19.4896C14.6425 19.4896 17.6945 16.4377 17.6945 12.673C17.6945 8.90824 14.6425 5.85632 10.8778 5.85632C7.11308 5.85632 4.06116 8.90824 4.06116 12.673C4.06116 16.4377 7.11308 19.4896 10.8778 19.4896Z" fill="#56578A"/>
<path d="M10.8778 18.1573C13.9067 18.1573 16.3622 15.7019 16.3622 12.673C16.3622 9.64404 13.9067 7.1886 10.8778 7.1886C7.84887 7.1886 5.39343 9.64404 5.39343 12.673C5.39343 15.7019 7.84887 18.1573 10.8778 18.1573Z" fill="#CFEFF8"/>
<path d="M10.8778 11.0029C11.1842 11.0032 11.4868 11.0713 11.7638 11.2022C11.8827 11.0388 11.9541 10.8456 11.97 10.6442C11.986 10.4427 11.9459 10.2407 11.8542 10.0606C11.7625 9.88046 11.6228 9.72921 11.4504 9.62358C11.2781 9.51795 11.08 9.46204 10.8778 9.46204C10.6757 9.46204 10.4775 9.51795 10.3052 9.62358C10.1329 9.72921 9.99317 9.88046 9.90148 10.0606C9.80978 10.2407 9.76969 10.4427 9.78565 10.6442C9.80161 10.8456 9.87299 11.0388 9.9919 11.2022C10.2689 11.0712 10.5714 11.0032 10.8778 11.0029Z" fill="#56578A"/>
<path d="M11.359 15.1188C12.4816 14.8534 13.1765 13.7282 12.9112 12.6055C12.6458 11.4829 11.5206 10.7879 10.398 11.0533C9.27531 11.3187 8.58036 12.4439 8.84573 13.5665C9.11111 14.6892 10.2363 15.3841 11.359 15.1188Z" fill="#7CC8E1"/>
<path d="M3.12378 19.9783C3.17972 19.9783 3.23338 19.9561 3.27293 19.9165C3.31249 19.877 3.33472 19.8233 3.33472 19.7674V18.063C3.33472 18.007 3.31249 17.9534 3.27293 17.9138C3.23338 17.8743 3.17972 17.8521 3.12378 17.8521C3.06784 17.8521 3.01418 17.8743 2.97462 17.9138C2.93507 17.9534 2.91284 18.007 2.91284 18.063V19.7674C2.91284 19.8233 2.93507 19.877 2.97462 19.9165C3.01418 19.9561 3.06784 19.9783 3.12378 19.9783Z" fill="#3A2C60"/>
<path d="M22.6574 22.0473L17.6582 17.6995L17.662 17.6957C17.8587 17.4991 17.9691 17.2324 17.9691 16.9543C17.9691 16.6762 17.8587 16.4095 17.662 16.2128L17.4483 15.9991C17.3668 15.9187 17.272 15.8529 17.1682 15.8044C17.7761 14.5793 18.014 13.2036 17.853 11.8454C17.6919 10.4872 17.1388 9.20529 16.2612 8.15627V2.81259C16.2606 2.36303 16.0816 1.93209 15.7635 1.61436C15.4455 1.29663 15.0144 1.11809 14.5648 1.11792H4.60857C4.15918 1.11842 3.72833 1.29718 3.41059 1.61497C3.09284 1.93276 2.91413 2.36362 2.91369 2.81301V17.0437C2.91369 17.0996 2.93591 17.1533 2.97547 17.1929C3.01503 17.2324 3.06868 17.2546 3.12462 17.2546C3.18057 17.2546 3.23422 17.2324 3.27378 17.1929C3.31334 17.1533 3.33556 17.0996 3.33556 17.0437V3.73945H15.838V7.69495C14.9222 6.7834 13.7728 6.14206 12.5161 5.84146C11.2594 5.54086 9.94412 5.59264 8.71494 5.99111C7.48577 6.38958 6.39029 7.11931 5.54898 8.10004C4.70766 9.08077 4.15309 10.2745 3.94627 11.55C3.73944 12.8255 3.88836 14.1333 4.37665 15.3296C4.86494 16.526 5.67369 17.5645 6.71396 18.331C7.75423 19.0974 8.98573 19.5622 10.273 19.6741C11.5603 19.786 12.8535 19.5408 14.0105 18.9653C14.0591 19.0679 14.1246 19.1616 14.2043 19.2425L14.418 19.4562C14.604 19.6434 14.8542 19.7529 15.1179 19.7624C15.3816 19.772 15.639 19.6809 15.838 19.5077V21.1741H3.33472V20.7876C3.33472 20.7317 3.31249 20.678 3.27293 20.6385C3.23338 20.5989 3.17972 20.5767 3.12378 20.5767C3.06784 20.5767 3.01418 20.5989 2.97462 20.6385C2.93507 20.678 2.91284 20.7317 2.91284 20.7876V23.0476C2.91334 23.497 3.09207 23.9278 3.40982 24.2455C3.72756 24.5633 4.15837 24.742 4.60772 24.7425H14.564C15.0134 24.742 15.4442 24.5633 15.762 24.2455C16.0797 23.9278 16.2585 23.497 16.2591 23.0476V19.8614L20.2515 24.4525C20.4051 24.6287 20.5933 24.7715 20.8043 24.8721C21.0153 24.9728 21.2447 25.0291 21.4783 25.0376H21.5371C21.8845 25.0378 22.2237 24.9318 22.5092 24.7339C22.7947 24.536 23.0129 24.2557 23.1347 23.9303C23.2564 23.605 23.2759 23.2502 23.1904 22.9135C23.105 22.5768 22.9187 22.2742 22.6566 22.0463L22.6574 22.0473ZM3.33556 3.31758V2.81259C3.33601 2.47527 3.47016 2.15189 3.70862 1.9133C3.94709 1.67472 4.2704 1.54041 4.60772 1.53979H14.564C14.9015 1.54019 15.2252 1.67445 15.4638 1.91314C15.7025 2.15183 15.8368 2.47546 15.8372 2.81301V3.318L3.33556 3.31758ZM6.20769 17.3449C5.12695 16.2642 4.45437 14.8422 4.30455 13.3212C4.15474 11.8002 4.53696 10.2744 5.38609 9.00358C6.23522 7.73281 7.49871 6.79578 8.96127 6.35217C10.4238 5.90855 11.995 5.9858 13.407 6.57075C14.8189 7.1557 15.9844 8.21216 16.7048 9.5601C17.4252 10.908 17.6559 12.4641 17.3576 13.963C17.0593 15.462 16.2504 16.8112 15.0689 17.7806C13.8873 18.7501 12.4062 19.2798 10.8778 19.2796C10.0099 19.2819 9.15022 19.1119 8.34844 18.7796C7.54666 18.4474 6.81875 17.9594 6.20684 17.3439L6.20769 17.3449ZM14.7171 19.159L14.5026 18.9442C14.4514 18.8929 14.4098 18.8329 14.3796 18.7671C15.4572 18.147 16.3511 17.2523 16.9704 16.1742C17.0369 16.2042 17.0975 16.2459 17.1492 16.2974L17.3629 16.5111C17.4803 16.6286 17.5462 16.7879 17.5462 16.9541C17.5462 17.1202 17.4803 17.2795 17.3629 17.397L15.6024 19.1575C15.4831 19.2715 15.3245 19.3352 15.1594 19.3352C14.9944 19.3353 14.8357 19.2718 14.7163 19.1579L14.7171 19.159ZM14.5648 24.321H4.60857C4.27105 24.3207 3.94745 24.1865 3.70879 23.9478C3.47012 23.7092 3.3359 23.3856 3.33556 23.048V21.5972H15.838V23.048C15.8376 23.3856 15.7034 23.7092 15.4647 23.9478C15.226 24.1865 14.9024 24.3207 14.5648 24.321V24.321ZM22.4459 24.2413C22.3214 24.3658 22.1727 24.4633 22.009 24.5278C21.8453 24.5923 21.67 24.6225 21.4941 24.6163C21.3183 24.6102 21.1455 24.5679 20.9867 24.4922C20.8278 24.4164 20.6863 24.3087 20.5708 24.1759L16.2034 19.1531L17.3583 17.998L22.3807 22.3644C22.5135 22.4799 22.6211 22.6215 22.6968 22.7803C22.7726 22.9392 22.8148 23.1119 22.8209 23.2878C22.827 23.4637 22.7969 23.639 22.7324 23.8027C22.6678 23.9665 22.5703 24.1152 22.4459 24.2396V24.2413Z" fill="#3A2C60"/>
<path d="M14.9048 8.6456C13.9731 7.71394 12.7471 7.13416 11.4358 7.00507C10.1245 6.87598 8.80901 7.20555 7.71346 7.93764C6.61792 8.66972 5.81011 9.75902 5.42767 11.0199C5.04523 12.2808 5.11182 13.6354 5.61611 14.8527C6.12039 16.07 7.03116 17.0748 8.19323 17.6959C9.35531 18.317 10.6968 18.5159 11.9891 18.2588C13.2814 18.0017 14.4446 17.3045 15.2805 16.2859C16.1163 15.2673 16.5732 13.9905 16.5731 12.6728C16.5752 11.9246 16.4288 11.1834 16.1424 10.4921C15.856 9.80081 15.4354 9.1732 14.9048 8.6456ZM14.6066 16.4016C13.7438 17.2642 12.6087 17.8011 11.3945 17.9206C10.1803 18.0401 8.96226 17.735 7.94786 17.0571C6.93346 16.3793 6.18549 15.3706 5.83138 14.2031C5.47727 13.0356 5.53894 11.7814 6.00588 10.6543C6.47282 9.52711 7.31614 8.59674 8.39215 8.02166C9.46816 7.44659 10.7103 7.2624 11.9069 7.50048C13.1034 7.73856 14.1805 8.38417 14.9544 9.32731C15.7283 10.2705 16.1513 11.4528 16.1512 12.6728C16.1531 13.3656 16.0175 14.0519 15.7524 14.6919C15.4872 15.3319 15.0978 15.913 14.6066 16.4016V16.4016Z" fill="#3A2C60"/>
<path d="M14.074 10.5103C14.0181 10.5103 13.9644 10.5325 13.9249 10.5721C13.8853 10.6116 13.8631 10.6653 13.8631 10.7212V11.0881C13.8629 11.2605 13.7943 11.4258 13.6724 11.5477C13.5505 11.6696 13.3852 11.7382 13.2128 11.7384H12.7333C12.5513 11.4896 12.3215 11.2797 12.0572 11.121C12.1645 10.8969 12.2052 10.6468 12.1745 10.4003C12.1437 10.1538 12.0429 9.9213 11.8838 9.73046L12.1648 9.37546C12.1995 9.33154 12.2154 9.27563 12.2089 9.22003C12.2024 9.16443 12.174 9.1137 12.1301 9.07898C12.0862 9.04427 12.0303 9.02842 11.9747 9.03493C11.9191 9.04144 11.8684 9.06977 11.8336 9.11368L11.5645 9.45371C11.3585 9.32476 11.1204 9.25637 10.8774 9.25637C10.6343 9.25637 10.3962 9.32476 10.1902 9.45371L9.92129 9.11368C9.90445 9.091 9.88324 9.07193 9.8589 9.0576C9.83455 9.04327 9.80758 9.03398 9.77958 9.03027C9.75158 9.02656 9.72312 9.02851 9.69588 9.03601C9.66865 9.04351 9.6432 9.05641 9.62105 9.07393C9.59889 9.09145 9.58048 9.11324 9.56691 9.13801C9.55333 9.16278 9.54487 9.19003 9.54203 9.21813C9.53918 9.24623 9.54201 9.27462 9.55034 9.30161C9.55867 9.3286 9.57234 9.35364 9.59054 9.37524L9.87193 9.73046C9.71305 9.92137 9.61227 10.1539 9.58153 10.4003C9.5508 10.6468 9.59141 10.8969 9.69854 11.121C9.43473 11.2799 9.20526 11.4897 9.02354 11.7384H8.54302C8.3706 11.7382 8.20528 11.6696 8.08336 11.5477C7.96144 11.4258 7.89287 11.2605 7.8927 11.0881V10.7212C7.8927 10.6653 7.87048 10.6116 7.83092 10.5721C7.79136 10.5325 7.73771 10.5103 7.68176 10.5103C7.62582 10.5103 7.57217 10.5325 7.53261 10.5721C7.49305 10.6116 7.47083 10.6653 7.47083 10.7212V11.0881C7.4711 11.3723 7.58416 11.6449 7.78517 11.8459C7.98619 12.0469 8.25874 12.16 8.54302 12.1603H8.77695C8.67798 12.3812 8.61482 12.6166 8.58985 12.8574H7.68282C7.62687 12.8574 7.57322 12.8796 7.53366 12.9192C7.4941 12.9587 7.47188 13.0124 7.47188 13.0683C7.47188 13.1243 7.4941 13.1779 7.53366 13.2175C7.57322 13.2571 7.62687 13.2793 7.68282 13.2793H8.58732C8.60656 13.5191 8.66351 13.7544 8.75607 13.9764H8.54302C8.25876 13.9768 7.98624 14.0898 7.78523 14.2908C7.58423 14.4918 7.47116 14.7644 7.47083 15.0486V15.4157C7.47083 15.4716 7.49305 15.5252 7.53261 15.5648C7.57217 15.6044 7.62582 15.6266 7.68176 15.6266C7.73771 15.6266 7.79136 15.6044 7.83092 15.5648C7.87048 15.5252 7.8927 15.4716 7.8927 15.4157V15.0486C7.89287 14.8762 7.96144 14.7109 8.08336 14.589C8.20528 14.467 8.3706 14.3985 8.54302 14.3983H8.98747C9.19847 14.7048 9.48081 14.9553 9.81016 15.1284C10.1395 15.3016 10.506 15.392 10.8781 15.392C11.2502 15.392 11.6167 15.3016 11.946 15.1284C12.2754 14.9553 12.5577 14.7048 12.7687 14.3983H13.213C13.3854 14.3985 13.5507 14.467 13.6726 14.589C13.7945 14.7109 13.8631 14.8762 13.8633 15.0486V15.4157C13.8633 15.4716 13.8855 15.5252 13.9251 15.5648C13.9646 15.6044 14.0183 15.6266 14.0742 15.6266C14.1302 15.6266 14.1838 15.6044 14.2234 15.5648C14.2629 15.5252 14.2852 15.4716 14.2852 15.4157V15.0486C14.2848 14.7644 14.1717 14.4919 13.9707 14.2909C13.7697 14.0899 13.4972 13.9768 13.213 13.9764H13.0003C13.0929 13.7547 13.1498 13.5198 13.1691 13.2803H14.0746C14.1306 13.2803 14.1842 13.2581 14.2238 13.2185C14.2634 13.179 14.2856 13.1253 14.2856 13.0694C14.2856 13.0134 14.2634 12.9598 14.2238 12.9202C14.1842 12.8807 14.1306 12.8585 14.0746 12.8585H13.1659C13.141 12.6179 13.0779 12.3829 12.9788 12.1624H13.2128C13.497 12.162 13.7695 12.049 13.9705 11.848C14.1715 11.647 14.2846 11.3744 14.2849 11.0902V10.7212C14.2849 10.6653 14.2627 10.6116 14.2232 10.5721C14.1836 10.5325 14.13 10.5103 14.074 10.5103V10.5103ZM9.99322 10.563C9.99322 10.3284 10.0864 10.1034 10.2523 9.93748C10.4182 9.77157 10.6433 9.67836 10.8779 9.67836C11.1125 9.67836 11.3375 9.77157 11.5034 9.93748C11.6694 10.1034 11.7626 10.3284 11.7626 10.563C11.7615 10.6927 11.731 10.8204 11.6733 10.9366C11.1606 10.7437 10.5952 10.7437 10.0824 10.9366C10.0247 10.8205 9.99417 10.6927 9.99322 10.563ZM11.0886 14.9575V12.5821C11.0886 12.5262 11.0664 12.4725 11.0268 12.433C10.9873 12.3934 10.9336 12.3712 10.8777 12.3712C10.8217 12.3712 10.7681 12.3934 10.7285 12.433C10.689 12.4725 10.6667 12.5262 10.6667 12.5821V14.9575C10.1899 14.9036 9.75173 14.6692 9.44221 14.3025C9.13268 13.9358 8.97526 13.4645 9.00225 12.9853C9.02924 12.5062 9.23859 12.0556 9.58734 11.7259C9.93608 11.3963 10.3978 11.2126 10.8777 11.2126C11.3576 11.2126 11.8193 11.3963 12.168 11.7259C12.5168 12.0556 12.7261 12.5062 12.7531 12.9853C12.7801 13.4645 12.6227 13.9358 12.3131 14.3025C12.0036 14.6692 11.5655 14.9036 11.0886 14.9575V14.9575Z" fill="#3A2C60"/>
</svg>
