<svg width="17" height="24" viewBox="0 0 17 24" fill="none" xmlns="http://www.w3.org/2000/svg">
<path d="M4.25086 24C6.59639 24 8.50001 22.208 8.50001 20V16H4.25086C1.90533 16 0.00170898 17.792 0.00170898 20C0.00170898 22.208 1.90533 24 4.25086 24Z" fill="#0ACF83"/>
<path d="M0.00170898 12C0.00170898 9.792 1.90533 8 4.25086 8H8.50001V16H4.25086C1.90533 16 0.00170898 14.208 0.00170898 12Z" fill="#A259FF"/>
<path d="M0.00183105 4C0.00183105 1.792 1.90545 0 4.25098 0H8.50013V8H4.25098C1.90545 8 0.00183105 6.208 0.00183105 4Z" fill="#F24E1E"/>
<path d="M8.5 0H12.7492C15.0947 0 16.9983 1.792 16.9983 4C16.9983 6.208 15.0947 8 12.7492 8H8.5V0Z" fill="#FF7262"/>
<path d="M16.9983 12C16.9983 14.208 15.0947 16 12.7492 16C10.4036 16 8.5 14.208 8.5 12C8.5 9.792 10.4036 8 12.7492 8C15.0947 8 16.9983 9.792 16.9983 12Z" fill="#1ABCFE"/>
</svg>
