<svg width="21" height="21" viewBox="0 0 21 21" fill="none" xmlns="http://www.w3.org/2000/svg">
<path d="M10.5 0C4.69864 0 0 4.77029 0 10.6601C0 15.6699 3.38591 19.8278 7.95408 21C7.90136 20.8666 7.87545 20.6797 7.87545 20.4938V18.6811H6.56272C5.85408 18.6811 5.19728 18.3617 4.90864 17.7747C4.56728 17.1351 4.51455 16.149 3.64864 15.5357C3.38591 15.3225 3.59591 15.1093 3.88455 15.1356C4.43591 15.2952 4.88183 15.669 5.30183 16.2279C5.72183 16.7877 5.90591 16.921 6.69319 16.921C7.06047 16.921 7.63774 16.8947 8.16319 16.814C8.45183 16.0673 8.95047 15.4014 9.55455 15.082C6.03728 14.6556 4.35728 12.8965 4.35728 10.4977C4.35728 9.45803 4.80319 8.47185 5.53864 7.61904C5.30272 6.79254 4.98728 5.08692 5.64408 4.421C7.21953 4.421 8.16408 5.46071 8.4 5.72653C9.18728 5.4598 10.0541 5.30013 10.9459 5.30013C11.8646 5.30013 12.7046 5.4598 13.4918 5.72653C13.7277 5.4598 14.6732 4.421 16.2477 4.421C16.8777 5.06061 16.5891 6.79254 16.3264 7.61904C17.0618 8.44554 17.4818 9.45803 17.4818 10.4977C17.4818 12.8965 15.8277 14.6556 12.3373 15.0285C13.3086 15.5348 13.9914 16.9736 13.9914 18.0397V20.4674C13.9914 20.5473 13.9654 20.6271 13.9654 20.707C18.06 19.2681 21 15.3243 21 10.6601C21 4.77029 16.3014 0 10.5 0Z" fill="#321F47"/>
</svg>
