<svg width="19" height="24" viewBox="0 0 19 24" fill="none" xmlns="http://www.w3.org/2000/svg">
<path d="M4.73081 1.42536C3.87281 1.42536 3.17813 2.12282 3.17813 2.98748C3.17813 3.84999 3.87281 4.54997 4.73081 4.54997C5.58931 4.54997 6.28336 3.84999 6.28336 2.98748C6.28336 2.12282 5.58943 1.42536 4.73081 1.42536ZM14.9313 1.42536C14.0729 1.42536 13.3791 2.12282 13.3791 2.98748C13.3791 3.84999 14.0729 4.54997 14.9313 4.54997C15.7873 4.54997 16.4836 3.84999 16.4836 2.98748C16.4836 2.12282 15.7873 1.4265 14.9313 1.42536ZM9.83099 0C8.97312 0 8.27844 0.697334 8.27844 1.56224C8.27844 2.42475 8.97299 3.12473 9.83099 3.12473C10.6895 3.12473 11.3834 2.42475 11.3834 1.56224C11.3834 0.697334 10.6894 0 9.83087 0H9.83099ZM18.6018 5.77832C18.5169 5.71329 18.413 5.67807 18.3062 5.67805C18.2478 5.67805 18.1886 5.68875 18.1328 5.71039C17.0816 6.1146 16.0138 6.42143 15.0394 6.64964C14.8407 6.69619 14.6803 6.84464 14.6137 7.02278C13.9037 8.97765 12.0909 10.8392 10.1889 12.7889C10.1126 12.8617 10.0057 12.9579 9.83162 12.9579C9.65792 12.9579 9.55204 12.8648 9.47433 12.7889C7.57261 10.8392 5.75976 8.98407 5.04955 7.02907C4.98298 6.85106 4.82241 6.70273 4.62406 6.65593C3.64905 6.42772 2.5788 6.11133 1.52871 5.70737C1.47316 5.68606 1.41421 5.6751 1.35476 5.67504C1.24951 5.67504 1.14751 5.70825 1.06141 5.77442C0.996245 5.82451 0.944759 5.89038 0.911759 5.96588C0.878759 6.04138 0.865319 6.12405 0.872695 6.20618C1.03376 7.83183 1.67275 9.42111 2.82597 11.0864C3.90998 12.6521 5.32387 14.1014 6.69084 15.5029C9.20952 18.0856 11.5889 20.5247 11.7977 23.3532C11.8068 23.4763 11.8619 23.5914 11.9519 23.6754C12.0419 23.7594 12.1602 23.8061 12.283 23.8061H15.2422C15.3081 23.806 15.3733 23.7925 15.4338 23.7664C15.4944 23.7403 15.5491 23.702 15.5945 23.6541C15.64 23.6061 15.6752 23.5493 15.6982 23.4872C15.7212 23.4251 15.7314 23.359 15.7282 23.2928C15.6351 21.4017 14.9272 19.5079 13.564 17.5038C13.2783 17.0836 12.9723 16.6747 12.6523 16.2747C12.5222 16.1118 12.5767 15.9093 12.6761 15.8072C12.7744 15.706 12.8732 15.6052 12.9726 15.5029C14.3396 14.1014 15.7534 12.6521 16.8375 11.0864C17.9906 9.42086 18.6294 7.84101 18.7905 6.21562C18.8066 6.05232 18.7328 5.87896 18.6018 5.77832V5.77832ZM6.65617 17.7031C6.58609 17.6295 6.48335 17.5544 6.31065 17.5544C6.08976 17.5544 5.95874 17.7078 5.90918 17.7838C4.66448 19.6879 4.02161 21.485 3.93275 23.2909C3.92973 23.3573 3.94003 23.4236 3.96303 23.4859C3.98604 23.5483 4.02128 23.6053 4.06666 23.6536C4.11248 23.7016 4.16745 23.7399 4.2283 23.7661C4.28915 23.7923 4.35463 23.8059 4.42082 23.8061H7.37488C7.49799 23.8056 7.6164 23.7585 7.70661 23.6743C7.79681 23.5901 7.85222 23.4748 7.86183 23.3514C7.92615 22.481 8.19571 21.6085 8.68654 20.6917C8.85673 20.3745 8.72445 20.0765 8.62659 19.9492C8.13977 19.3126 7.54333 18.6336 6.65617 17.7031" fill="#264970"/>
<path d="M9.83439 7.23567C10.7617 7.23567 11.2996 7.17969 11.4886 7.17969C11.7176 7.17969 11.9362 7.36827 11.9362 7.63221C11.9362 7.7092 11.9181 7.7643 11.9002 7.81299C11.7771 8.14348 11.2166 9.3327 10.173 10.3529C10.0559 10.4673 9.92324 10.4887 9.83188 10.4887H9.83088C9.73965 10.4887 9.60712 10.4673 9.49011 10.3529C8.44639 9.3327 7.88574 8.14348 7.7631 7.81286C7.74495 7.7643 7.72681 7.7092 7.72681 7.63221C7.72681 7.36827 7.94581 7.17969 8.17483 7.17969C8.3638 7.17969 8.9013 7.23567 9.82838 7.23567H9.83451" fill="#264970"/>
</svg>
