<svg width="24" height="24" viewBox="0 0 24 24" fill="none" xmlns="http://www.w3.org/2000/svg">
<g clip-path="url(#clip0)">
<path d="M1 1.02783H23.0001V22.9721H1V1.02783Z" fill="url(#paint0_radial)"/>
<path d="M0.999988 1.02908H23.0001V22.9734H0.999988V1.02908ZM0 23.9988H24V0.00366211H0V23.9988ZM14.4 10.1349C14.4 10.0119 14.4 9.71454 14.35 9.14025C14.35 9.05822 14.36 9.03772 14.43 9.00696C15.04 8.75059 16.47 8.29942 18.09 8.29942C18.17 8.29942 18.21 8.31993 18.21 8.40195V9.88884C18.21 9.97086 18.18 9.99136 18.1 9.99136C17.47 9.96061 16.56 10.0426 16.21 10.1964V16.6567C16.21 16.7387 16.18 16.7797 16.09 16.7797H14.52C14.44 16.7797 14.4 16.749 14.4 16.6567V10.1349H14.4ZM8.00003 11.0681C8.23 11.0886 8.41001 11.0886 8.81004 11.0886C9.98005 11.0886 11.0801 10.6682 11.0801 9.03776C11.0801 7.73547 10.3 7.07915 8.96002 7.07915C8.56003 7.07915 8.18004 7.09966 8.00003 7.10991V11.0681ZM6.23002 5.62303C6.23002 5.55126 6.25002 5.49995 6.33001 5.49995C6.97 5.46919 7.91 5.44868 8.90003 5.44868C11.67 5.44868 12.88 7.00734 12.88 9.00696C12.88 11.6115 11.04 12.7293 8.78004 12.7293C8.40001 12.7293 8.27003 12.7088 8.00003 12.7088V16.6464C8.00003 16.7285 7.97003 16.7695 7.88 16.7695H6.34001C6.26002 16.7695 6.21998 16.7387 6.21998 16.6464V5.62303H6.23002Z" fill="#E579FF"/>
</g>
<defs>
<radialGradient id="paint0_radial" cx="0" cy="0" r="1" gradientUnits="userSpaceOnUse" gradientTransform="translate(8.24575 5.94556) scale(16.72 16.5997)">
<stop stop-color="#4B2D4F" stop-opacity="0.98"/>
<stop offset="1" stop-color="#180024"/>
</radialGradient>
<clipPath id="clip0">
<rect width="24" height="24" fill="white"/>
</clipPath>
</defs>
</svg>
