<svg width="24" height="24" viewBox="0 0 24 24" fill="none" xmlns="http://www.w3.org/2000/svg">
<g clip-path="url(#clip0)">
<path d="M1 1.02783H23V22.9721H1V1.02783Z" fill="url(#paint0_radial)"/>
<path d="M0.999988 1.02798H23.0001V22.9723H0.999988V1.02798ZM0 23.9978H24V0.00256348H0V23.9978ZM16.18 9.84672C15.39 9.84672 15.1201 10.2569 15.1201 10.5953C15.1201 10.9644 15.3 11.2208 16.36 11.7848C17.93 12.5641 18.4201 13.3127 18.4201 14.4099C18.4201 16.0506 17.2001 16.9325 15.55 16.9325C14.68 16.9325 13.93 16.7479 13.5 16.4915C13.43 16.4608 13.42 16.4095 13.42 16.3275V14.8201C13.42 14.7175 13.47 14.6867 13.5401 14.738C14.1701 15.1585 14.89 15.3431 15.55 15.3431C16.34 15.3431 16.67 15.0047 16.67 14.5432C16.67 14.1741 16.44 13.8459 15.43 13.3127C14.01 12.6154 13.42 11.9079 13.42 10.7286C13.42 9.40576 14.4301 8.30858 16.18 8.30858C17.04 8.30858 17.64 8.4419 17.97 8.5957C18.05 8.64696 18.07 8.72899 18.07 8.80076V10.2056C18.07 10.2876 18.02 10.3389 17.92 10.3081C17.48 10.0211 16.83 9.84672 16.18 9.84672V9.84672ZM7.58 11.067C7.81001 11.0875 7.99003 11.0875 8.39002 11.0875C9.56006 11.0875 10.66 10.6671 10.66 9.03666C10.66 7.73437 9.87002 7.07805 8.54004 7.07805C8.14005 7.07805 7.76002 7.09856 7.58 7.10881V11.067ZM5.80004 5.62193C5.80004 5.55016 5.94006 5.49885 6.02001 5.49885C6.66004 5.46809 7.61004 5.44759 8.60003 5.44759C11.37 5.44759 12.45 7.00624 12.45 8.99561C12.45 11.6002 10.61 12.7179 8.35002 12.7179C7.97003 12.7179 7.84005 12.6974 7.57 12.6974V16.6351C7.57 16.7171 7.54001 16.7581 7.45002 16.7581H5.92002C5.84003 16.7581 5.8 16.7274 5.8 16.6351V5.62193H5.80004Z" fill="#31C5F0"/>
</g>
<defs>
<radialGradient id="paint0_radial" cx="0" cy="0" r="1" gradientUnits="userSpaceOnUse" gradientTransform="translate(8.24574 5.94556) scale(16.72 16.5997)">
<stop stop-color="#34364E" stop-opacity="0.98"/>
<stop offset="1" stop-color="#0C0824"/>
</radialGradient>
<clipPath id="clip0">
<rect width="24" height="24" fill="white"/>
</clipPath>
</defs>
</svg>
